<?xml version="1.0" encoding="utf-8"?>
<!-- Generator: Adobe Illustrator 16.0.0, SVG Export Plug-In . SVG Version: 6.00 Build 0)  -->
<!DOCTYPE svg PUBLIC "-//W3C//DTD SVG 1.1//EN" "http://www.w3.org/Graphics/SVG/1.1/DTD/svg11.dtd">
<svg version="1.1" id="Layer_1" xmlns="http://www.w3.org/2000/svg" xmlns:xlink="http://www.w3.org/1999/xlink" x="0px" y="0px"
	 width="46px" height="46px" viewBox="0 0 46 46" enable-background="new 0 0 46 46" xml:space="preserve">
<g>
	<path fill="#43A5D6" d="M45.988,43.438c0,1.412-1.143,2.557-2.557,2.557H2.555C1.143,45.994,0,44.85,0,43.438V2.561
		c0-1.41,1.143-2.555,2.555-2.555h40.877c1.414,0,2.557,1.145,2.557,2.555V43.438z"/>
	<path fill="#FFFFFF" d="M2.839,36.656c0,0,3.548,0.92-0.178-3.836c0,0-2.307-2.27,0.356-5.145c0,0,2.164-1.988,0.886,0.176
		c0,0-1.526,2.451,0.746,4.543c0,0,2.873,2.732,2.164,4.828c0,0-0.037,0.566,0.639,0.531h4.792c0,0-3.73-8.523-4.098-9.797
		c0,0-3.463-10.803-2.344-20.757c0,0,0.266-2.022,1.81-0.641c0,0,1.438,1.066,2.075,1.438c0,0,2.182,1.652,3.887-0.692
		c0,0,2.767-3.086,5.643-1.011c0,0,2.717,3.14,5.588,1.544c0,0,1.227-0.639,2.076-1.65c0,0,1.188-1.829,4.346,0.266l1.633,1.135
		c0,0,1.314,1.314,2.592,0.817c0,0,2.625-1.42,3.479-2.166c0,0,1.385-0.853,1.385,0.781c0,0,1.986,15.685-5.822,29.737
		c0,0-0.717,0.994,0.424,0.969l4.279,0.004c0,0,0.852,0.041,0.301-0.455c0,0-1.205-0.588,1.623-4.129c0,0,2.742-2.295,1.197-5.883
		c0,0-0.584-0.668,0.35-0.201c0,0,4.309,3.182,0.662,6.084c0,0-3.035,3.594,0.053,3.541c0,0,2.359-0.32,2.607,0.924v0.813H0v-0.441
		C0,37.984,0.156,36.588,2.839,36.656z"/>
	<path fill="#FFFFFF" d="M24.662,21.811c0,0,0.305,0,0.727,0c0,0,0.326,0.02,0.285,0.25c0,0,0.098,0.161-0.551,0.113
		c0,0-0.521-0.019-0.652,0.227c0,0-0.32,0.353-0.533-0.206c0,0-0.465-0.712,0.087-0.599C24.025,21.597,24.457,21.811,24.662,21.811z
		"/>
	<path fill="#FFFFFF" d="M22.908,23.32c0,0,0.257-0.285,0.46,0.054c0,0,0.09,0.63-0.089,1.003c0,0-0.39,0.246-0.371-0.338
		C22.908,24.039,22.81,23.569,22.908,23.32z"/>
	<path fill="#FFFFFF" d="M23.217,26.336v0.602c0,0,0.205,0.188,0.275-0.078v-0.654c0,0-0.063-0.199-0.275-0.119
		C23.217,26.086,22.942,26.176,23.217,26.336z"/>
	<path fill-rule="evenodd" clip-rule="evenodd" d="M27.445,22.5c0.289,0.021,0.578,0.023,0.865,0.062
		c0.371,0.052,0.512,0.323,0.373,0.674c-0.008,0.023-0.014,0.049-0.029,0.071c-0.314,0.433-0.15,0.854,0.029,1.275
		c0.09,0.219,0.189,0.436,0.266,0.66c0.117,0.346-0.008,0.617-0.354,0.729c-0.924,0.303-1.85,0.59-2.826,0.654
		c-0.334,0.021-0.67,0-1.008,0.025c-0.189,0.014-0.385,0.066-0.563,0.143c-0.16,0.068-0.154,0.264,0.012,0.301
		c0.775,0.182,1.09,0.816,1.381,1.432c0.473,0.994,1.074,1.893,1.756,2.746c0.102,0.133,0.199,0.277,0.277,0.424
		c0.197,0.357,0.113,0.635-0.238,0.836c-0.064,0.039-0.135,0.074-0.203,0.107c-0.42,0.193-0.318,0.285-0.242,0.535
		c0.035,0.125,0.049,0.254,0.08,0.377c0.086,0.326,0.268,0.598,0.592,0.68c0.613,0.043,0.986,0.252,1.48,0.25
		c0.182,0.02,0.381-0.057,0.559-0.125c0.332-0.186,0.408-0.035,0.414,0.262c0.004,0.291-0.184,0.518-0.475,0.625
		c-0.5,0.184-0.992,0.396-1.492,0.584c-0.342,0.123-0.688,0.25-1.041,0.324c-0.359,0.066-0.521-0.076-0.535-0.438
		c-0.031-0.701-0.297-1.318-0.67-1.9c-0.164-0.262-0.385-0.432-0.697-0.508c-0.158-0.041-0.348-0.158-0.418-0.291
		c-0.439-0.828-0.855-1.666-1.27-2.504c-0.04-0.072-0.067-0.158-0.069-0.242c-0.01-0.465-0.305-0.738-0.639-0.99
		c-0.229-0.174-0.463-0.344-0.688-0.525c-0.261-0.211-0.539-0.189-0.614,0.119c-0.144,0.59-0.332,0.998-0.073,1.438
		c0.163,0.531,0.219,1.07-0.171,1.525c-0.205,0.238-0.493,0.41-0.742,0.615c-0.575,0.475-1.024,1.043-1.314,1.732
		c-0.051,0.115-0.108,0.23-0.162,0.346c-0.099,0.236-0.276,0.361-0.534,0.363c-0.297,0.008-0.599,0.033-0.77,0.314
		c-0.215,0.352-0.457,0.715-0.376,1.158c0.027,0.148,0.118,0.307,0.224,0.418c0.337,0.344,0.699,0.668,1.042,1.016
		c0.076,0.072,0.109,0.193,0.161,0.289c0.029,0.098-0.126,0.113-0.28,0.146c-0.029,0.014-0.069,0.008-0.098,0.023
		c-0.643,0.346-1.132-0.035-1.636-0.344c-0.369-0.223-0.731-0.465-1.114-0.664c-0.739-0.365-0.717-0.553-0.18-1.072
		c0.452-0.492,0.82-1.041,0.998-1.697c0.031-0.115,0.099-0.295-0.019-0.371c-0.269-0.166-0.068-0.559,0.105-0.797
		c0.516-0.717,1.029-1.438,1.576-2.135c0.444-0.561,0.715-1.125,0.518-1.873c-0.127-0.486-0.004-0.979,0.358-1.379
		c0.281-0.314,0.281-0.664,0.075-1.039c-0.188-0.33-0.389-0.662-0.508-1.025c-0.121-0.363-0.133-0.754,0.071-1.111
		c0.151-0.266,0.319-0.523,0.49-0.777c0.189-0.28,0.098-0.546-0.229-0.618c-0.132-0.029-0.268-0.04-0.405-0.058
		c-0.411-0.052-0.623-0.302-0.524-0.704c0.094-0.385,0.258-0.75,0.396-1.125c0.188-0.519,0.402-1.029,0.562-1.558
		c0.09-0.293,0.081-0.61-0.104-0.888c-0.129-0.194-0.088-0.376,0.003-0.578c0.252-0.557,0.486-1.121,0.727-1.68
		c0.196-0.459,0.006-1.013-0.448-1.366c-0.625-0.49-1.152-1.077-1.04-1.957c0.044-0.341,0.163-0.7,0.344-0.992
		c0.194-0.311,0.489-0.567,0.765-0.818c0.094-0.088,0.266-0.088,0.396-0.138c0.249-0.096,0.509-0.173,0.738-0.302
		c0.159-0.091,0.242-0.115,0.443-0.029c0.454,0.317,0.948,0.448,1.499,0.352c0.192-0.032,0.353,0.032,0.455,0.209
		c0.195,0.345,0.301,0.748,0.655,0.99c0.018,0.012,0.123,0.241-0.063,0.189c-0.192-0.054-0.218,0.232-0.261,0.408
		c-0.06,0.262-0.149,0.52-0.256,0.77c-0.081,0.187-0.109,0.356-0.002,0.532c0.182,0.297,0.148,0.56-0.051,0.851
		c-0.203,0.299-0.351,0.636-0.502,0.966c-0.071,0.159-0.172,0.221-0.335,0.211c-0.127-0.011-0.255-0.037-0.381-0.026
		c-0.308,0.021-0.545,0.406-0.406,0.68c0.041,0.084,0.202,0.233,0.28,0.169c0.182-0.158,0.493,0.019,0.74,0.008
		c0.264-0.013,0.435-0.177,0.555-0.396c0.068-0.122,0.09-0.083,0.163-0.08c0.057,0.015,0.059,0.066,0.068,0.159
		c0.006,0.049-0.021,0.108-0.003,0.151c0.031,0.083,0.07,0.208,0.127,0.223c0.077,0.015,0.18-0.05,0.26-0.096
		c0.134-0.077,0.25-0.203,0.391-0.25c0.328-0.111,0.521-0.304,0.525-0.663c0.002-0.205,0.02-0.41,0.018-0.614
		c-0.004-0.303-0.123-0.554-0.346-0.768c-0.063-0.06-0.103-0.239-0.06-0.295c0.098-0.133,0.226-0.052,0.322,0.046
		c0.141,0.14,0.268,0.289,0.416,0.416c0.254,0.221,0.541,0.383,0.904,0.337c0.227-0.03,0.416,0.036,0.549,0.243
		c0.025,0.041,0.07,0.079,0.111,0.101c0.223,0.12,0.314,0.278,0.238,0.544c-0.057,0.197,0.055,0.351,0.219,0.479
		c0.635,0.497,1.262,1.002,1.891,1.509c0.09,0.074,0.254,0.16,0.121,0.306c-0.127,0.137-0.264,0.054-0.379-0.051
		c-0.275-0.252-0.537-0.525-0.83-0.756c-0.361-0.282-0.748-0.533-1.121-0.8c-0.201-0.148-0.434-0.221-0.645-0.082
		c-0.227,0.15-0.418,0.357-0.412,0.665c0.002,0.084,0.098,0.14,0.125,0.216c0.084,0.223-0.07,0.401-0.277,0.521
		c-0.107,0.063-0.189,0.188-0.277,0.286c-0.1,0.103-0.182,0.22-0.295,0.31c-0.219,0.171-0.271,0.468-0.02,0.566
		c0.387,0.154,0.678,0.446,1.027,0.648c0.104,0.061,0.244,0.058,0.365,0.083c0.449-0.198,0.57,0.128,0.916,0.176
		c0.164,0.023,0.346,0.028,0.504-0.015c0.316-0.09,0.623-0.214,0.932-0.332c0.096-0.034,0.197-0.08,0.266-0.146
		c0.484-0.474,1.07-0.952,1.203-1.608c0.059-0.285,0.508-0.559,0.672-0.742c0.094-0.113,0.262-0.041,0.311,0.016
		c0.064,0.074,0.057,0.225,0.053,0.342c-0.002,0.055-0.074,0.11-0.115,0.162c-0.414,0.518-0.826,1.034-1.236,1.554
		c-0.023,0.027-0.041,0.057-0.063,0.083c-0.293,0.352-0.652,0.399,0.045,0.685c0.248,0.08,0.109,0.255-0.008,0.355
		c-0.256,0.214-0.545,0.237-0.535,0.793c-0.059,0.184-0.078,0.336-0.4,0.19c-0.633-0.221-1.264-0.077-1.893,0.013
		c-0.158,0.021-0.301,0.121-0.248,0.289c0.029,0.097,0.174,0.208,0.281,0.225c0.307,0.049,0.625,0.053,0.936,0.075
		C27.443,22.527,27.443,22.515,27.445,22.5z M25.52,22.502c0.184,0.077,0.348,0.087,0.369-0.128
		c0.023-0.206-0.105-0.322-0.291-0.354c-0.154-0.028-0.32-0.031-0.479-0.031c-0.279,0.001-0.537-0.003-0.775-0.188
		c-0.092-0.071-0.26-0.075-0.39-0.065c-0.377,0.035-0.492,0.281-0.303,0.613c0.063,0.107,0.125,0.222,0.193,0.327
		c0.246,0.357,0.472,0.377,0.843,0.161C24.943,22.688,25.24,22.611,25.52,22.502z M22.845,26.445c0.3,0.17,0.157,0.563,0.281,0.885
		c0.076,0.199,0.387,0.207,0.543,0.037c0.404-0.445,0.164-1.238-0.41-1.365C22.952,25.93,22.841,26.021,22.845,26.445z
		 M23.533,24.002c-0.009,0-0.017-0.002-0.026-0.003c0-0.077,0.008-0.153-0.002-0.228c-0.018-0.165-0.005-0.369-0.221-0.407
		c-0.221-0.041-0.376,0.068-0.496,0.269c-0.183,0.305-0.018,0.562,0.093,0.815c0.041,0.096,0.18,0.213,0.264,0.207
		c0.11-0.006,0.25-0.109,0.304-0.211C23.516,24.316,23.508,24.152,23.533,24.002z"/>
</g>
</svg>
